<?xml version="1.0" encoding="UTF-8" standalone="no"?>
<!-- Created with Inkscape (http://www.inkscape.org/) -->

<svg
   xmlns:dc="http://purl.org/dc/elements/1.1/"
   xmlns:cc="http://creativecommons.org/ns#"
   xmlns:rdf="http://www.w3.org/1999/02/22-rdf-syntax-ns#"
   xmlns:svg="http://www.w3.org/2000/svg"
   xmlns="http://www.w3.org/2000/svg"
   xmlns:sodipodi="http://sodipodi.sourceforge.net/DTD/sodipodi-0.dtd"
   xmlns:inkscape="http://www.inkscape.org/namespaces/inkscape"
   width="75"
   height="75"
   viewBox="0 0 75.000001 75.000001"
   id="svg2"
   version="1.1"
   inkscape:version="0.91 r13725"
   sodipodi:docname="icon.svg"
   inkscape:export-filename="/Users/sudhakar/Developer/sportindia/images/favicon3.png"
   inkscape:export-xdpi="300"
   inkscape:export-ydpi="300">
  <defs
     id="defs4" />
  <sodipodi:namedview
     id="base"
     pagecolor="#ffffff"
     bordercolor="#666666"
     borderopacity="1.0"
     inkscape:pageopacity="0.0"
     inkscape:pageshadow="2"
     inkscape:zoom="1"
     inkscape:cx="20.91977"
     inkscape:cy="34.003167"
     inkscape:document-units="px"
     inkscape:current-layer="layer1"
     showgrid="false"
     inkscape:window-width="1440"
     inkscape:window-height="851"
     inkscape:window-x="0"
     inkscape:window-y="0"
     inkscape:window-maximized="1"
     units="px" />
  <metadata
     id="metadata7">
    <rdf:RDF>
      <cc:Work
         rdf:about="">
        <dc:format>image/svg+xml</dc:format>
        <dc:type
           rdf:resource="http://purl.org/dc/dcmitype/StillImage" />
        <dc:title></dc:title>
      </cc:Work>
    </rdf:RDF>
  </metadata>
  <g
     inkscape:label="Layer 1"
     inkscape:groupmode="layer"
     id="layer1"
     style="display:inline"
     transform="translate(0,-977.3622)">
    <path
       style="opacity:1;fill:#27ae60;fill-opacity:1;fill-rule:nonzero;stroke:none;stroke-width:15.2693367;stroke-linecap:round;stroke-linejoin:round;stroke-miterlimit:4;stroke-dasharray:none;stroke-dashoffset:0;stroke-opacity:1"
       d="m 38.548915,994.3749 c -3.100148,0 -5.607664,0.63419 -7.521671,1.90352 -1.887049,1.24448 -2.830073,2.7503 -2.830073,4.51738 0,1.0951 0.323658,2.041 0.970646,2.8374 0.646987,0.7964 1.536242,1.4812 2.668468,2.0536 1.132232,0.5724 2.277407,1.0207 3.436593,1.3442 1.159187,0.3236 3.073167,0.7965 5.741991,1.4187 3.342771,0.7218 6.36212,1.5182 9.057904,2.3894 2.722743,0.871 5.028103,1.9287 6.915157,3.1732 1.914007,1.2444 3.396797,2.8244 4.44815,4.7409 1.078318,1.8915 1.617036,4.2196 1.617036,6.9823 0,1.3281 -0.157042,2.5986 -0.456463,3.8186 a 27.865284,27.723047 0 0 0 4.126007,-14.4505 27.865284,27.723047 0 0 0 -6.749357,-18.03922 c 0.326886,0.94796 0.492137,1.88082 0.492137,2.79857 0,1.31915 -0.511839,2.51325 -1.536231,3.58345 -0.997444,1.0453 -2.2512,1.5688 -3.760837,1.5688 -1.374849,0 -2.426459,-0.3117 -3.15432,-0.9339 -0.700902,-0.6472 -1.46866,-1.6918 -2.30435,-3.1354 -1.078318,-2.06584 -2.372921,-3.67164 -3.882559,-4.81654 -1.509643,-1.16975 -3.935451,-1.75446 -7.278228,-1.75446 z m -20.479976,2.30857 a 27.865284,27.723047 0 0 0 -7.076749,18.42013 27.865284,27.723047 0 0 0 6.939285,18.2543 c -1.322009,-2.1767 -1.987451,-4.2952 -1.987451,-6.3538 0,-1.3439 0.498923,-2.4887 1.496361,-3.4345 1.024398,-0.9706 2.319007,-1.4564 3.882558,-1.4564 1.267021,0 2.331546,0.374 3.194197,1.1207 0.889604,0.7466 1.644441,1.8537 2.264474,3.3222 0.754821,1.7422 1.563422,3.1986 2.426073,4.3684 0.889609,1.1698 2.129401,2.1403 3.719912,2.9119 1.590517,0.7466 3.679758,1.1196 6.267713,1.1196 3.558433,0 6.443365,-0.7588 8.653909,-2.277 2.237499,-1.5432 3.355789,-3.4596 3.355789,-5.7493 0,-1.8169 -0.606456,-3.2852 -1.819557,-4.4052 -1.186141,-1.1449 -2.735616,-2.0166 -4.649624,-2.6139 -1.887048,-0.5973 -4.421443,-1.2315 -7.602471,-1.9035 -4.25934,-0.9209 -7.831377,-1.9915 -10.715868,-3.211 -2.857532,-1.2444 -5.134954,-2.9244 -6.8333,-5.04 -1.67139,-2.1404 -2.507923,-4.791 -2.507923,-7.9519 0,-1.83175 0.334397,-3.53754 0.992672,-5.12073 z"
       id="path3336"
       inkscape:connector-curvature="0"
       inkscape:export-filename="/Users/sudhakar/Developer/sportindia/images/favicon2.png"
       inkscape:export-xdpi="150"
       inkscape:export-ydpi="150" />
  </g>
  <g
     inkscape:label="s copy"
     id="g4155"
     inkscape:groupmode="layer"
     style="display:none"
     transform="translate(0,-977.3622)">
    <text
       sodipodi:linespacing="125%"
       id="text4157"
       y="585.86487"
       x="375.7673"
       style="font-style:normal;font-variant:normal;font-weight:normal;font-stretch:normal;font-size:21.18118477px;line-height:125%;font-family:Krungthep;-inkscape-font-specification:Krungthep;letter-spacing:0px;word-spacing:0px;fill:#000000;fill-opacity:1;stroke:none;stroke-width:1px;stroke-linecap:butt;stroke-linejoin:miter;stroke-opacity:1"
       xml:space="preserve"><tspan
         style="font-style:normal;font-variant:normal;font-weight:normal;font-stretch:normal;font-size:82.37127686px;font-family:'Arial Rounded MT Bold';-inkscape-font-specification:'Arial Rounded MT Bold, ';fill:#000000;fill-opacity:1"
         y="585.86487"
         x="375.7673"
         id="tspan4159"
         sodipodi:role="line">S</tspan></text>
  </g>
  <g
     inkscape:groupmode="layer"
     id="layer2"
     inkscape:label="s"
     style="display:inline"
     transform="translate(0,-977.3622)">
    <g
       transform="scale(1.0407312,0.9608629)"
       style="font-style:normal;font-variant:normal;font-weight:normal;font-stretch:normal;font-size:38.08516693px;line-height:125%;font-family:Krungthep;-inkscape-font-specification:Krungthep;letter-spacing:0px;word-spacing:0px;fill:#ffffff;fill-opacity:1;stroke:none;stroke-width:1px;stroke-linecap:butt;stroke-linejoin:miter;stroke-opacity:1"
       id="text4147" />
  </g>
</svg>
